<?xml version="1.0" encoding="UTF-8"?>
<svg id="_レイヤー_2" data-name="レイヤー 2" xmlns="http://www.w3.org/2000/svg" xmlns:xlink="http://www.w3.org/1999/xlink" viewBox="0 0 27.78 28.98">
  <defs>
    <style>
      .cls-1 {
        clip-path: url(#clippath);
      }

      .cls-2, .cls-3 {
        fill: none;
      }

      .cls-2, .cls-4 {
        stroke-width: 0px;
      }

      .cls-3 {
        stroke: #1e1f1f;
        stroke-linecap: round;
        stroke-linejoin: round;
        stroke-width: .5px;
      }

      .cls-4 {
        fill: #1e1f1f;
        fill-rule: evenodd;
      }
    </style>
    <clipPath id="clippath">
      <rect class="cls-2" x=".69" y="20.01" width="8.97" height="8.2" transform="translate(-4.47 1.42) rotate(-10.91)"/>
    </clipPath>
  </defs>
  <g id="_レイヤー_1-2" data-name="レイヤー 1">
    <path class="cls-4" d="M19.81,8.09s.04,0,.06,0c.08-.02.22-.08.39-.16.15-.07.32-.17.5-.28.85-.52,2.01-1.45,2.49-2.58.24-1.27.31-3.09.21-4.17-.04-.46-.11-.78-.21-.88.1.22-.04.45-.31.7-.23.21-.56.44-.93.69-.78.54-1.75,1.21-2.43,2.14-.72,1.71-.3,3.77.06,4.35.06.09.12.15.17.15-.03.04-.03.06,0,.06ZM20.03,3.77c.62-.83,1.52-1.45,2.3-1.99.01,0,.02-.01.03-.02.22-.15.44-.31.64-.46,0,.2.01.43.01.67,0,.96-.08,2.08-.24,2.94-.37.84-1.2,1.59-1.96,2.1-.31.21-.6.37-.8.48-.01-.02-.02-.05-.03-.08-.09-.22-.18-.56-.23-.97-.11-.8-.08-1.79.28-2.67Z"/>
    <g class="cls-1">
      <path class="cls-3" d="M4.85,23.39l-.14-.71c-.17-.91.47-1.81,1.46-2.01.4-.08.81-.03,1.16.13.36.16.64.43.81.76l.99.37-.73.66.15.75c.15.8-.05,1.64-.56,2.32-.51.69-1.29,1.17-2.16,1.33l-3.03.58c-.05.01-.11,0-.15-.01-.05-.02-.49.38-.53.35-.03-.04.35-.52.35-.56,0-.05,0-.1.03-.14l2.34-3.83Z"/>
      <path class="cls-3" d="M5.85,24.12l-1.99,3.25"/>
    </g>
    <path class="cls-4" d="M18.44,10.99c.04-.15.07-.32.1-.52.15-.94.21-2.38-.28-3.5-.87-1.98-3.36-3.5-3.79-3.5-.27.53-.37,2.92.5,4.9.76,1.74,2.52,2.93,3.1,3.05.08.02.14.01.17-.02,0,.05.02.07.04.05,0,0,.02-.03.03-.05.04-.07.08-.21.13-.4ZM14.83,4.14s0,.06-.01.1c-.03.3-.04.69-.02,1.12.05.87.23,1.9.63,2.82.39.89,1.08,1.64,1.72,2.15.32.25.6.43.81.53,0,0,0,0,0,0,.05-.21.1-.48.14-.8.11-.89.09-2.02-.29-2.88-.39-.88-1.16-1.7-1.91-2.3-.37-.3-.73-.53-1.01-.69-.02-.01-.04-.02-.05-.03Z"/>
    <path class="cls-4" d="M18.53,12.39l-2.3-5.84.28-.11,2.3,5.84-.28.11Z"/>
    <path class="cls-4" d="M19.86,10.97c.05-.14.12-.3.21-.49.41-.86,1.17-2.09,2.22-2.75,1.84-1.16,5.14-1.04,5.5-.8-.08.59-1.55,3.78-2.87,4.43-1.2.59-4.42.42-5.03.14-.06-.03-.09-.05-.1-.08-.03.04-.05.04-.06.02,0-.01,0-.03,0-.06.01-.08.05-.22.12-.41ZM27.54,7.37s0,0,0,0c0,0,0,0,0,0ZM27.14,7.3s-.09,0-.15-.01c-.36-.02-.84-.03-1.37.01-1.07.08-2.26.33-3.07.85-.81.51-1.46,1.43-1.88,2.23-.15.28-.26.54-.34.73.05.01.12.02.19.03.35.06.85.1,1.38.11.54.01,1.1,0,1.61-.06.52-.06.93-.16,1.18-.28.23-.11.51-.37.82-.75.3-.37.6-.82.86-1.29.26-.46.49-.92.65-1.29.05-.11.09-.2.12-.29Z"/>
    <path class="cls-4" d="M18.93,11.55l5.71-2.96.14.26-5.71,2.96-.14-.26Z"/>
    <path class="cls-4" d="M15.13,15.58c.06-.16.13-.36.2-.59.34-1.13.64-2.99.11-4.44-.9-2.43-4-4.35-4.57-4.36-.42.64-.84,3.55.06,5.98.77,2.09,2.85,3.56,3.65,3.78.13.04.23.04.28,0,0,.06.02.08.04.06.01-.01.03-.03.05-.06.05-.07.11-.2.17-.37ZM11.15,6.81c-.03.1-.06.21-.09.35-.08.37-.14.84-.16,1.38-.04,1.07.07,2.33.49,3.47.41,1.11,1.23,2.05,2.02,2.68.39.32.75.55,1.02.68.08.04.15.07.2.09.11-.26.24-.67.36-1.18.25-1.09.37-2.47-.03-3.55-.41-1.09-1.33-2.11-2.26-2.88-.46-.38-.9-.68-1.26-.88-.11-.06-.21-.11-.29-.16Z"/>
    <path class="cls-4" d="M13.61,12.75l-1.33-3.6.28-.1,1.34,3.62,1.3,4.51-.29.08-1.29-4.5Z"/>
    <path class="cls-4" d="M16.3,16.87s.02-.03.03-.05c.05-.07.14-.18.27-.31.09-.1.21-.21.34-.33.82-.77,2.29-1.95,3.69-2.54,2.58-.45,4.64,1.47,4.93,1.95,0,0,0,.02-.01.02-.36.7-1.33,2.57-3.93,2.57-2.31,0-4.65-.66-5.16-1.12-.07-.06-.11-.13-.1-.18-.06.03-.08.03-.07,0ZM24.98,15.64c-.42.77-1.32,2.04-3.35,2.04-1.27,0-2.55-.21-3.5-.47-.48-.13-.86-.27-1.1-.39,0,0-.01,0-.02,0,.19-.19.45-.43.76-.71.82-.7,1.95-1.53,3.01-1.99,1.12-.18,2.14.14,2.94.58.4.22.74.47.99.69.11.1.2.18.26.25Z"/>
    <path class="cls-4" d="M19.68,16.38l3.63-.57-.05-.29-3.64.57-4.55.94.06.29,4.54-.94Z"/>
    <path class="cls-4" d="M11.44,20.6c.03-.16.06-.36.08-.59.14-1.4.07-3.89-1.02-5.57-1.72-2.63-5.94-4.07-6.62-3.92-.33.88-.07,4.44,1.65,7.07,1.47,2.25,4.33,3.44,5.36,3.48.17,0,.29-.02.35-.08.02.07.04.09.07.06.01-.02.03-.04.04-.08.03-.08.06-.21.09-.37ZM4.28,11.04c-.02.15-.03.35-.02.58,0,.47.06,1.05.17,1.69.23,1.29.71,2.77,1.52,4.01.79,1.22,2.05,2.12,3.16,2.66.56.27,1.06.45,1.43.53.18.04.31.05.39.06,0-.01,0-.02,0-.03.07-.34.13-.9.13-1.58.01-1.37-.21-3.06-.99-4.26-.79-1.21-2.18-2.18-3.5-2.83-.65-.32-1.27-.56-1.76-.71-.21-.06-.39-.11-.53-.13Z"/>
    <path class="cls-4" d="M8.68,17.29l-1.64-2.27.25-.17,1.65,2.28,2.96,4.54-.25.16-2.96-4.54Z"/>
    <path class="cls-4" d="M13.3,21.38c1.14-.85,3.36-2.16,5.4-2.23,3.17-.12,6.55,2.26,6.82,2.89-.54.77-3.65,3.16-6.82,3.28-2.67.1-5.26-1.89-5.93-2.84-.12-.18-.18-.31-.16-.4-.07.03-.1.02-.08-.02,0-.02.02-.04.04-.06.05-.07.15-.16.29-.28.12-.1.27-.22.44-.35ZM13.15,22.15s0,0,.01-.01c.27-.23.73-.58,1.32-.95,1.19-.74,2.79-1.48,4.24-1.54,1.46-.05,3.01.47,4.25,1.11.61.32,1.13.65,1.51.94.16.12.29.23.39.33-.13.13-.3.28-.51.45-.4.32-.91.68-1.51,1.02-1.2.69-2.69,1.27-4.16,1.33-1.44.05-2.89-.57-3.99-1.29-.54-.36-.98-.73-1.27-1.04-.13-.14-.23-.26-.28-.35Z"/>
    <path class="cls-4" d="M17.15,22.03l2.83.03v-.3s-2.83-.03-2.83-.03l-5.39.19v.3s5.4-.19,5.4-.19Z"/>
    <path class="cls-4" d="M21.54,4.62l-.33.98-.98,2.25-.33,1.94-.66,1.97c-.14.42-.45,1-.78,1.56-.33.56-.67,1.1-.9,1.43h0s-3.29,3.91-3.29,3.91l-2.6,3.85-.98,3.53-.48-.13,1-3.61,2.66-3.94,3.29-3.9c.22-.32.56-.85.87-1.39.32-.55.61-1.1.74-1.46l.65-1.93.33-1.96.99-2.29.33-.96.47.16Z"/>
  </g>
</svg>