<?xml version="1.0" encoding="utf-8"?>
<!-- Generator: Adobe Illustrator 28.1.0, SVG Export Plug-In . SVG Version: 6.00 Build 0)  -->
<svg version="1.1" id="レイヤー_1" xmlns="http://www.w3.org/2000/svg" xmlns:xlink="http://www.w3.org/1999/xlink" x="0px"
	 y="0px" viewBox="0 0 640 91" style="enable-background:new 0 0 640 91;" xml:space="preserve">
<style type="text/css">
	.st0{fill:#202020;}
</style>
<g>
	<g>
		<g>
			<g>
				<path class="st0" d="M567.8,83.3c-0.2,0-0.3,0-0.5-0.1c-0.2-0.1-0.4-0.2-0.6-0.4s-0.2-0.4-0.3-0.7c0-0.2,0-0.5,0.1-0.7l6.4-11.9
					l-0.4-2.1c-0.6-3.1,1.3-6.2,4.4-6.9c1.2-0.3,2.6-0.1,3.7,0.5c1.1,0.5,2,1.4,2.6,2.5l2.7,1.1c0.2,0.1,0.3,0.2,0.3,0.4
					c0,0.2,0,0.3-0.1,0.5l-1.9,1.9l0.4,2.1c0.5,2.6,0,5.4-1.5,7.7c-1.5,2.3-3.8,3.8-6.5,4.4l-8.7,1.8
					C568,83.3,567.9,83.3,567.8,83.3z M578.2,61.4c-0.3,0-0.7,0-1,0.1c-2.6,0.5-4.2,3.1-3.7,5.7l0.5,2.2c0,0.1,0,0.2,0,0.3l-6.5,12
					c0,0,0,0.1,0,0.2c0,0.1,0,0.1,0.1,0.2c0,0,0.1,0.1,0.1,0.1c0.1,0,0.1,0,0.2,0l8.7-1.8c2.4-0.5,4.5-1.9,5.8-4
					c1.3-2,1.8-4.6,1.3-6.9l-0.5-2.4c0-0.2,0-0.3,0.1-0.5l1.5-1.5l-2.2-0.9c-0.1,0-0.2-0.1-0.3-0.2c-0.5-0.9-1.2-1.7-2.2-2.2
					C579.6,61.6,578.9,61.4,578.2,61.4z"/>
				<path class="st0" d="M571,82.7c-0.1,0-0.2,0-0.2-0.1c-0.2-0.1-0.3-0.4-0.2-0.7l5.5-10.2c0.1-0.2,0.4-0.3,0.7-0.2
					c0.2,0.1,0.3,0.4,0.2,0.7l-5.5,10.2C571.3,82.6,571.2,82.7,571,82.7z"/>
			</g>
		</g>
		<path class="st0" d="M591.8,76.3c-0.5-1-0.6-4.5,2.6-10.8c3.1-6.2,8.2-12.1,10.5-14.4c1.3-1.3,4.4-4.9,6.4-8.9
			c2-4,3.4-8.4,3.8-10.2v-2.5h1l0,2.7c-0.5,1.8-1.9,6.3-3.9,10.5c-2.1,4.2-5.2,7.8-6.6,9.2c-2.2,2.2-7.2,8-10.3,14.1
			c-3.1,6.2-2.9,9.3-2.6,9.9L591.8,76.3z"/>
		<path class="st0" d="M593.4,62.3l-0.4,0c-3.4-0.1-11.1-2.3-15.3-9.6c-1.9-3.2-3-6.3-3.2-9.2c-0.2-2.9,0.3-5.4,0.9-7.6l0.2-0.6
			l0.5,0.2c0.6,0.3,1.6,0.6,2.6,0.9l0.2,0.1c1.2,0.4,2.9,0.9,4.7,1.6c4.3,1.7,7.3,4,9,6.9l0,0c4.4,7.4,2,14.1,1,16.9L593.4,62.3z
			 M576.3,36.7c-0.5,1.9-0.9,4.2-0.7,6.7c0.2,2.8,1.2,5.7,3.1,8.8c3.9,6.6,10.8,8.8,14.2,9.1c1.5-4.4,2.5-9.7-1-15.7l0,0
			c-1.6-2.7-4.4-4.9-8.5-6.5c-1.7-0.7-3.3-1.2-4.6-1.6l-0.2-0.1C577.6,37.2,576.9,36.9,576.3,36.7z"/>
		<path class="st0" d="M594.6,65.9l-0.7-1.3c-2-4-5.6-11.4-8.3-14.1c-0.9-1.4-2.9-4.2-3.9-5.2l0.5-0.5c1.3,1.3,3.8,5.1,3.9,5.2
			c2.8,2.8,6.5,10.2,8.4,14.3l0.7,1.3L594.6,65.9z"/>
		<path class="st0" d="M603,49.5l-0.2,0c-4-0.3-7.7-4.1-10.2-10.3c-1.5-3.6-1.6-7-1.4-9.2c0.2-2.3,0.8-4.6,1.6-6.1l0.2-0.3l0.3,0
			c0.6,0.1,1.4,0.4,2.2,0.9c0.9,0.5,1.9,1.3,2.9,2.2c2.1,2,4.2,4.7,5.7,7.6l0,0.1c1.1,3.6,1.6,6.7,1.4,9.2c-0.2,2.5-1,4.4-2.4,5.7
			L603,49.5z M593.6,24.7c-0.7,1.4-1.2,3.4-1.3,5.4c-0.2,2.1-0.1,5.3,1.3,8.7c2.3,5.6,5.7,9.2,9.2,9.7c1.1-1.1,1.8-2.7,1.9-4.8
			c0.2-2.4-0.3-5.4-1.3-8.8c-1.5-2.8-3.5-5.4-5.5-7.3c-0.9-0.9-1.8-1.6-2.7-2.1C594.5,25,594,24.8,593.6,24.7z"/>
		<path class="st0" d="M603.6,52.9c-0.9-2.3-2-5.7-2.9-9c-1.4-4.6-3.4-11.5-4.5-11.5v-0.8c1.5,0,3,4.6,5.2,12c1,3.3,2,6.6,2.9,8.9
			L603.6,52.9z"/>
		<path class="st0" d="M612.6,36.7l-0.2,0c-2.4-0.1-6.9-1.9-9.3-6.6c-1-1.9-1.4-4.3-1.2-7.5c0.1-1.2,0.2-2.3,0.3-3.1l0.3-2.2
			l0.7,0.4c0.3,0.2,0.6,0.3,0.9,0.5l0.3,0.2c0.5,0.3,1.1,0.6,1.8,1.1h0c1.7,1.2,3.5,3.1,5.8,5.9l0.1,0.1c0.7,1.4,1.3,3.7,1.6,5.8
			c0.1,1.2,0.1,2.2,0,3.1c-0.1,1-0.4,1.7-0.8,2.2L612.6,36.7z M603.3,19l-0.1,0.7c-0.1,0.9-0.3,1.9-0.3,3.1
			c-0.2,2.9,0.2,5.2,1.1,6.9c2.1,4.1,6,5.9,8.2,6c0.2-0.3,0.4-0.8,0.5-1.5c0.1-0.8,0.1-1.8,0-2.9c-0.2-1.9-0.8-4.1-1.4-5.4
			c-2.2-2.7-3.9-4.5-5.5-5.6c-0.6-0.4-1.1-0.7-1.7-1l-0.3-0.1C603.5,19.1,603.4,19,603.3,19z"/>
		
			<rect x="610.1" y="26.3" transform="matrix(0.9202 -0.3916 0.3916 0.9202 35.8582 241.6484)" class="st0" width="0.7" height="13.2"/>
		<path class="st0" d="M615.3,29l-0.1-0.5c-0.2-1.2-0.4-2.1-0.6-2.8l-0.2-0.6c-0.1-0.5-0.3-1-0.4-1.5c-0.2-1.2-0.3-2.5,0.3-5.2
			c1.7-4.3,5.2-6.2,8.3-7.8c0.5-0.3,1.1-0.6,1.5-0.9l0.4-0.3l0.2,0.4c2.2,4,1.4,7.9-0.4,12.5l0,0c-1.5,3.6-4.4,5.8-8.7,6.5L615.3,29
			z M624.3,10.9c-0.4,0.2-0.7,0.4-1.1,0.6c-2.9,1.6-6.2,3.4-7.8,7.2c-0.5,2.5-0.5,3.6-0.3,4.7c0.1,0.4,0.2,0.9,0.3,1.4l0.2,0.6
			c0.2,0.6,0.3,1.4,0.5,2.4c3.7-0.7,6.1-2.6,7.4-5.8C625.3,17.8,626,14.4,624.3,10.9z"/>
		<path class="st0" d="M615.3,29.5c-0.1-5.3,3.9-13.5,5-14.6l0.5,0.5c-1,1-4.9,9.1-4.8,14.1L615.3,29.5z"/>
		<path class="st0" d="M623.3,39.3c-0.8,0-1.6-0.1-2.2-0.2c-1.9-0.4-3.7-1.2-4.7-2.3l-0.2-0.2l0-0.2c0.2-1.8,0.8-3.4,1.9-4.9
			c1.3-1.7,3.2-3.2,5.7-4.4c2.5-1.2,4.6-1.8,6.8-2.1l0,0c1.8-0.2,3.5-0.1,5.3,0.1l0.7,0.1l-0.3,0.6c-0.3,0.8-0.6,1.6-0.9,2.5
			l-0.1,0.3c-0.4,1.2-0.8,2.4-1.4,3.5c-1.3,2.9-3,4.7-5.4,5.8C626.7,39,624.9,39.3,623.3,39.3z M617.4,36.3c0.7,0.7,2.1,1.5,4,1.8
			c1.6,0.3,4.1,0.4,6.9-1c2.1-1,3.7-2.7,4.9-5.4c0.5-1.1,0.9-2.2,1.3-3.4l0.1-0.3c0.2-0.7,0.5-1.4,0.7-2c-1.5-0.1-2.9-0.2-4.4-0.1
			c-2,0.2-4.1,0.8-6.5,2c-2.4,1.1-4.2,2.5-5.3,4.1C618.1,33.4,617.6,34.7,617.4,36.3z"/>
		<path class="st0" d="M613.9,38.2l-0.3-0.7c2.2-0.9,4.8-1.6,7.4-2.4c3.7-1.1,7.8-2.3,8-3.3l0.7,0.1c-0.2,1.4-3.2,2.3-8.5,3.9
			C618.7,36.6,616.1,37.3,613.9,38.2z"/>
		<path class="st0" d="M617.9,55.9c-1.7,0-3.4-0.3-5-0.8c-2.4-0.8-4.3-2-5.1-3.4l-0.1-0.2l0.1-0.2c0.8-2,2-3.6,3.7-4.8
			c1.7-1.3,4.1-2.2,7.1-2.9c3-0.7,5.3-0.7,7.2,0c1.7,0.6,3.3,1.7,5.3,3.7l0.3,0.3l-0.4,0.6c-1,1.8-1.9,3.3-3.2,4.5
			c-1.5,1.4-3.4,2.3-6.2,2.9C620.3,55.7,619.1,55.9,617.9,55.9z M608.7,51.4c0.8,1.1,2.4,2.1,4.4,2.7c2.6,0.8,5.5,1,8.1,0.4l0,0
			c2.6-0.5,4.4-1.3,5.8-2.6c1.2-1.1,2-2.5,3-4.2c-1.8-1.8-3.1-2.7-4.6-3.2c-1.8-0.6-3.8-0.6-6.7,0.1c-2.9,0.7-5.1,1.6-6.8,2.8
			C610.5,48.3,609.4,49.7,608.7,51.4z"/>
		<polygon class="st0" points="604,53.1 603.9,52.4 622,48.5 622.2,49.2 		"/>
		<path class="st0" d="M614.7,74.3c-4.1,0-7.9-1.6-10.4-3c-2.7-1.5-5.2-3.5-6.8-5.3l-0.3-0.4l0.4-0.3c4.4-3.9,9-7.5,16.8-7.7
			c7.3-0.1,11.6,3.3,16.4,7.4l0.8,0.6l-0.3,0.4c-2.4,3-8.5,8.1-16.2,8.3C614.9,74.3,614.8,74.3,614.7,74.3z M598.6,65.8
			c1.2,1.3,3.4,3.1,6.2,4.7c2.5,1.4,6.3,3,10.3,2.9c7-0.2,12.8-4.8,15.1-7.5c-4.7-3.9-8.8-7.3-15.8-7.1
			C607.1,58.8,602.8,62,598.6,65.8z"/>
		<rect x="594.9" y="65.3" class="st0" width="24.6" height="0.8"/>
	</g>
	<g>
		<path d="M40.8,66.3c0,1.5,0,2.9,0.2,4.4h-1.9c-0.8-1.6-1.6-2.9-2.7-4.4L12,31.6c-0.8-1.1-1.6-2.2-2.4-3.3v37.9
			c0,1.5,0,2.9,0.2,4.4H8c0.2-1.5,0.2-2.9,0.2-4.4V31.6c0-1.5,0-2.9-0.2-4.4h2.6c0.9,1.5,1.9,2.9,2.9,4.4l26,36.7V31.6
			c0-1.5,0-2.9-0.2-4.4H41c-0.2,1.5-0.2,2.9-0.2,4.4V66.3z"/>
		<path d="M71.8,67.9c0-1.3,0.1-2.9,0.3-4.3H72c-2.2,4.9-6.3,7.6-11.6,7.6c-6.4,0-10.1-3-10.1-8.1c0-6.5,5.4-9.7,16.6-9.7
			c2.2,0,3.7,0.1,4.9,0.2v-2.9c0-6.7-2.8-9.6-9.3-9.6c-2.2,0-3.9,0.5-5.5,1.3c-1.5,0.8-2.6,1.7-3.5,2.8l-0.8-1
			c1.2-1.2,2.5-2.2,3.9-2.9c1.8-0.9,3.8-1.4,6.1-1.4c7.2,0,10.5,3.3,10.5,10.6v15.6c0,1.7,0.1,3,0.2,4.4h-1.5V67.9z M71.7,54.7
			c-1.3-0.1-2.7-0.2-4.9-0.2c-10.5,0-15.3,2.7-15.3,8.5c0,4.4,3.2,6.9,8.8,6.9c5.3,0,9.1-2.6,11.3-7.6V54.7z"/>
		<path d="M98.9,70.2c-1.3,0.7-3,1-4.6,1c-5.1,0-8-2.7-8-7.2V41.6h-2.9c-2,0-3.1,0.1-4.4,0.2v-1.6c1.3,0.1,2.4,0.2,4.4,0.2h2.9v-5.3
			c0-2-0.1-3.2-0.2-4.4h1.7c-0.1,1.2-0.2,2.4-0.2,4.4v5.3h5.1c2,0,3.1-0.1,4.4-0.2v1.6c-1.2-0.1-2.4-0.2-4.4-0.2h-5.1v22
			c0,4.1,2.4,6.3,6.6,6.3c1.7,0,3-0.4,4.2-1L98.9,70.2z"/>
		<path d="M128.2,66.3c0,2,0.1,3.1,0.2,4.4h-1.5v-2.4c0-1.3,0.1-3,0.2-4.4H127c-1.6,4.5-5.9,7.4-11.4,7.4c-6.8,0-10.8-4-10.8-11.1
			V44.7c0-2-0.1-3.1-0.2-4.4h1.7c-0.1,1.2-0.2,2.3-0.2,4.4v15c0,6.7,3.3,10.2,9.5,10.2c6.7-0.1,11.2-4.2,11.2-10.4V44.7
			c0-2-0.1-3.1-0.2-4.4h1.7c-0.1,1.2-0.2,2.3-0.2,4.4V66.3z"/>
		<path d="M140.7,47.8c1.6-4.8,5.5-8,10.1-8c1.8,0,3.5,0.3,4.6,0.9l-0.5,1.3c-1.5-0.6-2.8-0.9-4.5-0.9c-4.5,0-8.4,3.8-9.5,9.3v15.9
			c0,2,0.1,3.1,0.2,4.4h-1.7c0.1-1.2,0.2-2.4,0.2-4.4V44.7c0-2-0.1-3.1-0.2-4.4h1.5v2.3c0,1.9-0.1,4.1-0.3,5.2H140.7z"/>
		<path d="M180,67.9c0-1.3,0.1-2.9,0.3-4.3h-0.1c-2.2,4.9-6.3,7.6-11.6,7.6c-6.4,0-10.1-3-10.1-8.1c0-6.5,5.4-9.7,16.6-9.7
			c2.2,0,3.7,0.1,4.9,0.2v-2.9c0-6.7-2.8-9.6-9.3-9.6c-2.2,0-3.9,0.5-5.5,1.3c-1.5,0.8-2.6,1.7-3.5,2.8l-0.8-1
			c1.2-1.2,2.5-2.2,3.9-2.9c1.8-0.9,3.8-1.4,6.1-1.4c7.2,0,10.5,3.3,10.5,10.6v15.6c0,1.7,0.1,3,0.2,4.4H180V67.9z M180,54.7
			c-1.3-0.1-2.7-0.2-4.9-0.2c-10.5,0-15.3,2.7-15.3,8.5c0,4.4,3.2,6.9,8.8,6.9c5.3,0,9.1-2.6,11.3-7.6V54.7z"/>
		<path d="M194.8,26.4c-0.1,1.2-0.2,2.3-0.2,4.4v35.5c0,2,0.1,3.1,0.2,4.4h-1.7c0.1-1.2,0.2-2.4,0.2-4.4V30.8c0-2-0.1-3.1-0.2-4.4
			H194.8z"/>
		<path d="M253.6,63.6c0,1.5,0.1,3,0.2,4.4c-6,2.3-10.8,3.3-16.1,3.3c-12.3,0-19.6-8.4-19.6-22.5c0-13.1,7.7-22,19-22
			c4.8,0,8.6,1,11.7,3.3c1.7,1.2,3.2,2.7,4.6,4.6l-1.3,1c-1.1-1.9-2.4-3.3-4-4.5c-2.8-2.2-6.5-3.2-11-3.2
			c-10.6,0-17.6,8.2-17.6,20.8c0,13.5,6.6,21.3,18.3,21.3c4.5,0,9.6-1,14.6-2.8V51.8h-9.6c-1.5,0-2.6,0.1-4.4,0.2v-1.6
			c1.8,0.1,3,0.2,4.4,0.2h6.7c1.5,0,2.6-0.1,4.4-0.2c-0.1,1.9-0.2,3-0.2,4.4V63.6z"/>
		<path d="M282.5,67.9c0-1.3,0.1-2.9,0.3-4.3h-0.1c-2.2,4.9-6.3,7.6-11.6,7.6c-6.4,0-10.1-3-10.1-8.1c0-6.5,5.4-9.7,16.6-9.7
			c2.2,0,3.7,0.1,4.9,0.2v-2.9c0-6.7-2.8-9.6-9.3-9.6c-2.2,0-3.9,0.5-5.5,1.3c-1.5,0.8-2.6,1.7-3.5,2.8l-0.8-1
			c1.2-1.2,2.5-2.2,3.9-2.9c1.8-0.9,3.8-1.4,6.1-1.4c7.2,0,10.5,3.3,10.5,10.6v15.6c0,1.7,0.1,3,0.2,4.4h-1.5V67.9z M282.5,54.7
			c-1.3-0.1-2.7-0.2-4.9-0.2c-10.5,0-15.3,2.7-15.3,8.5c0,4.4,3.2,6.9,8.8,6.9c5.3,0,9.1-2.6,11.3-7.6V54.7z"/>
		<path d="M296.3,47.8c1.6-4.8,5.5-8,10.1-8c1.8,0,3.5,0.3,4.6,0.9l-0.5,1.3c-1.5-0.6-2.8-0.9-4.5-0.9c-4.5,0-8.4,3.8-9.5,9.3v15.9
			c0,2,0.1,3.1,0.2,4.4H295c0.1-1.2,0.2-2.4,0.2-4.4V44.7c0-2-0.1-3.1-0.2-4.4h1.5v2.3c0,1.9-0.1,4.1-0.3,5.2H296.3z"/>
		<path d="M341.6,66.3c0,2,0.1,3.1,0.2,4.4l-1.5,0.1v-4.8c0-1.5,0.1-3.1,0.3-4.4h-0.1c-1.7,6.1-6.1,9.7-12.3,9.7
			c-8.1,0-13.4-6.2-13.4-15.8c0-9.4,5.4-15.6,13.4-15.6c6.2,0,10.6,3.7,12.3,9.7h0.2c-0.2-0.8-0.3-3.3-0.3-5.5V30.8
			c0-2-0.1-3.1-0.2-4.4h1.7c-0.1,1.2-0.2,2.3-0.2,4.4V66.3z M340.3,55.4c0-8.8-4.8-14.4-12.2-14.4c-7.4,0-12.1,5.6-12.1,14.4
			c0,8.9,4.7,14.6,12.1,14.6C335.7,70,340.3,64.4,340.3,55.4z"/>
		<path d="M351.9,55v0.3c0,8.8,5.1,14.7,12.9,14.7c3.1,0,6.1-0.9,8.3-2.5c0.9-0.7,1.7-1.5,2.3-2.3l0.9,0.9c-0.5,0.6-1.5,1.5-2.2,2.1
			c-2.4,2-5.8,3.1-9.3,3.1c-8.4,0-14.2-6.5-14.2-15.9c0-9.8,5.2-15.7,13.8-15.7c8.1,0,12.7,5.2,12.7,14.4v1H351.9z M375.7,53.9
			c0-8.4-4.1-13-11.5-13c-7.3,0-11.9,4.9-12.3,13H375.7z"/>
		<path d="M407.9,70.6c0.1-1.3,0.2-2.4,0.2-4.4v-15c0-6.7-3.3-10.3-9.5-10.3c-6.7,0.1-11.2,4.3-11.2,10.4v14.8c0,2,0.1,3.1,0.2,4.4
			h-1.7c0.1-1.2,0.2-2.4,0.2-4.4V44.7c0-2-0.1-3.1-0.2-4.4h1.5v2.4c0,1.3-0.1,3-0.2,4.4h0.2c1.6-4.5,5.9-7.4,11.4-7.4
			c6.8,0,10.8,4.1,10.8,11.2v15.3c0,1.9,0.1,3.1,0.2,4.4H407.9z"/>
		<path d="M468.7,60.8c-0.9,1.5-1.9,2.9-2.8,4c-3.7,4.3-8,6.3-13.9,6.3c-12.3,0-19.8-8.6-19.8-22.5c0-13.1,7.6-22,18.8-22
			c5.6,0,9.9,1.5,13.2,4.7c1.6,1.5,2.8,3.4,4.1,5.6l-1.5,0.9c-0.9-2.3-2.1-4.1-3.6-5.6c-2.9-2.9-7-4.3-12.2-4.3
			c-10.5,0-17.4,8.1-17.4,20.8c0,13.4,6.9,21.3,18.5,21.3c5.4,0,9.3-1.7,12.9-5.8c0.9-1,1.7-2.3,2.7-4.1L468.7,60.8z"/>
		<path d="M495.8,67.9c0-1.3,0.1-2.9,0.3-4.3h-0.1c-2.2,4.9-6.3,7.6-11.6,7.6c-6.4,0-10.1-3-10.1-8.1c0-6.5,5.4-9.7,16.6-9.7
			c2.2,0,3.7,0.1,4.9,0.2v-2.9c0-6.7-2.8-9.6-9.3-9.6c-2.2,0-3.9,0.5-5.5,1.3c-1.5,0.8-2.6,1.7-3.5,2.8l-0.8-1
			c1.2-1.2,2.5-2.2,3.9-2.9c1.8-0.9,3.8-1.4,6.1-1.4c7.2,0,10.5,3.3,10.5,10.6v15.6c0,1.7,0.1,3,0.2,4.4h-1.5V67.9z M495.7,54.7
			c-1.3-0.1-2.7-0.2-4.9-0.2c-10.5,0-15.3,2.7-15.3,8.5c0,4.4,3.2,6.9,8.8,6.9c5.3,0,9.1-2.6,11.3-7.6V54.7z"/>
		<path d="M509.7,37.6c0-7.3,3.2-11.2,9-11.2c1.7,0,3.3,0.3,4.7,0.9l-0.5,1.3c-1.3-0.6-2.7-0.9-4.4-0.9c-4.9,0-7.5,3.3-7.5,9.9v2.8
			h3c2,0,3.1-0.1,4.4-0.2v1.6c-1.2-0.1-2.4-0.2-4.4-0.2h-3v24.6c0,2,0.1,3.1,0.2,4.4h-1.7c0.1-1.3,0.2-2.4,0.2-4.4V41.6h-2
			c-2,0-3.1,0.1-4.4,0.2v-1.6c1.2,0.1,2.4,0.2,4.4,0.2h2V37.6z"/>
		<path d="M523.9,55v0.3c0,8.8,5.1,14.7,12.9,14.7c3.1,0,6.1-0.9,8.3-2.5c0.9-0.7,1.7-1.5,2.3-2.3l0.9,0.9c-0.5,0.6-1.5,1.5-2.2,2.1
			c-2.4,2-5.8,3.1-9.3,3.1c-8.4,0-14.2-6.5-14.2-15.9c0-9.8,5.2-15.7,13.8-15.7c8.1,0,12.7,5.2,12.7,14.4v1H523.9z M547.7,53.9
			c0-8.4-4.1-13-11.5-13c-7.3,0-11.9,4.9-12.3,13H547.7z"/>
	</g>
</g>
</svg>
