<?xml version="1.0" encoding="utf-8"?>
<!-- Generator: Adobe Illustrator 28.1.0, SVG Export Plug-In . SVG Version: 6.00 Build 0)  -->
<svg version="1.1" id="レイヤー_1" xmlns="http://www.w3.org/2000/svg" xmlns:xlink="http://www.w3.org/1999/xlink" x="0px"
	 y="0px" viewBox="0 0 640 480" style="enable-background:new 0 0 640 480;" xml:space="preserve">
<style type="text/css">
	.st0{fill:#C6B7AB;}
	.st1{clip-path:url(#SVGID_00000100362612030219238030000010259925858691209652_);}
	.st2{fill:none;stroke:#FFFFFF;stroke-width:0.2;stroke-linecap:round;stroke-linejoin:round;}
	.st3{fill:#FFFFFF;stroke:#FFFFFF;stroke-width:0.2;stroke-linecap:round;stroke-linejoin:round;}
	.st4{fill:none;stroke:#FFFFFF;stroke-width:0.2;}
	.st5{fill:#FFFFFF;}
</style>
<g>
	<path class="st0" d="M306.9,255.3H115c-1.4,0-2.5-1.1-2.5-2.5v-25c0-1.4,1.1-2.5,2.5-2.5h192c1.4,0,2.5,1.1,2.5,2.5v25
		C309.5,254.2,308.3,255.3,306.9,255.3z"/>
	<g>
		<g>
			<g>
				<g>
					<defs>
						
							<rect id="SVGID_1_" x="277.4" y="243.2" transform="matrix(0.9796 -0.2009 0.2009 0.9796 -43.8406 61.4881)" width="7.1" height="7.1"/>
					</defs>
					<clipPath id="SVGID_00000139994222119592643500000006255469880094372792_">
						<use xlink:href="#SVGID_1_"  style="overflow:visible;"/>
					</clipPath>
					<g style="clip-path:url(#SVGID_00000139994222119592643500000006255469880094372792_);">
						<path class="st2" d="M280.2,246.1l-0.1-0.6c-0.2-0.8,0.3-1.6,1.1-1.7c0.3-0.1,0.6,0,0.9,0.1c0.3,0.1,0.5,0.4,0.7,0.7l0.8,0.3
							l-0.6,0.6l0.1,0.7c0.1,0.7,0,1.4-0.4,2c-0.4,0.6-1,1-1.7,1.1l-2.4,0.5c0,0-0.1,0-0.1,0c0,0-0.1,0-0.1-0.1c0,0,0-0.1,0-0.1
							c0,0,0-0.1,0-0.1L280.2,246.1z"/>
						<path class="st3" d="M281,246.7l-1.5,2.8"/>
					</g>
				</g>
				<path class="st4" d="M285.3,247.9c-0.1-0.2-0.1-1.1,0.7-2.9c0.9-1.7,2.3-3.3,2.9-3.9c0.4-0.4,1.2-1.4,1.8-2.5
					c0.6-1.1,1-2.4,1.1-2.9V235"/>
				<path class="st4" d="M285.3,239.4c1.1,1.8,0.6,3.5,0.3,4.5c-1.1,0-3-0.7-4.1-2.6c-0.6-0.9-0.8-1.7-0.9-2.5
					c-0.1-0.7,0.1-1.4,0.2-2c0.2,0.1,0.4,0.2,0.7,0.3c0,0,0,0,0,0c0.4,0.1,0.8,0.2,1.3,0.4C283.8,237.9,284.8,238.4,285.3,239.4z"/>
				<path class="st4" d="M286.1,245c-0.5-1-1.6-3.4-2.5-4.3c-0.2-0.4-0.8-1.1-1.1-1.4"/>
				<path class="st4" d="M288.5,236.4c0.3,1,0.4,1.8,0.4,2.5c0,0.7-0.3,1.2-0.6,1.5c-1-0.1-2-1-2.7-2.7c-0.4-0.9-0.4-1.7-0.4-2.5
					c0.1-0.7,0.2-1.3,0.4-1.6c0.2,0,0.3,0.1,0.6,0.2c0.2,0.1,0.5,0.3,0.8,0.6C287.5,234.9,288,235.6,288.5,236.4z"/>
				<path class="st4" d="M288.6,241.4c-0.7-1.8-1.6-5.7-2.1-5.7"/>
				<path class="st4" d="M289.1,232.4c0.4,0.3,0.8,0.7,1.6,1.6c0.2,0.3,0.3,1,0.4,1.6c0,0.3,0,0.6,0,0.8c0,0.2-0.1,0.4-0.2,0.5
					c-0.7,0-1.8-0.5-2.4-1.7c-0.3-0.6-0.3-1.3-0.3-2c0-0.3,0.1-0.6,0.1-0.9c0,0,0-0.1,0-0.1c0-0.1,0-0.1,0-0.2c0,0,0-0.1,0-0.1
					c0.1,0,0.2,0.1,0.2,0.1c0,0,0.1,0,0.1,0C288.7,232.2,288.9,232.3,289.1,232.4z"/>
				<path class="st4" d="M291.1,237.7l-1.4-3.4"/>
				<path class="st4" d="M294.1,233.1c-0.5,1.3-1.6,1.6-2.3,1.7c-0.1-0.3-0.1-0.6-0.2-0.8c0-0.1,0-0.1,0-0.2c0-0.1-0.1-0.3-0.1-0.4
					c-0.1-0.3-0.1-0.7,0.1-1.4c0.5-1.1,1.4-1.6,2.2-2.1c0.1-0.1,0.3-0.2,0.4-0.2C294.8,230.7,294.6,231.7,294.1,233.1z"/>
				<path class="st4" d="M291.8,235c0-1.4,1.1-3.7,1.4-4"/>
				<path class="st4" d="M295.9,234c0.5-0.1,0.9,0,1.4,0c-0.1,0.2-0.2,0.5-0.3,0.7c0,0,0,0,0,0.1c-0.1,0.3-0.2,0.6-0.4,1
					c-0.3,0.6-0.7,1.2-1.4,1.5c-0.7,0.3-1.4,0.4-2,0.3c-0.6-0.1-1-0.4-1.2-0.6c0.1-0.4,0.2-0.9,0.5-1.3c0.3-0.4,0.8-0.8,1.5-1.2
					C294.9,234.2,295.4,234,295.9,234z"/>
				<path class="st4" d="M291.2,237.3c1.7-0.7,4.2-1.1,4.3-1.6"/>
				<path class="st4" d="M293.3,242L293.3,242L293.3,242c-0.8,0.2-1.6,0.1-2.3-0.1c-0.6-0.2-1.1-0.5-1.3-0.9c0.2-0.5,0.5-0.9,1-1.3
					c0.5-0.3,1.1-0.6,1.9-0.8c0.8-0.2,1.4-0.2,1.9,0c0.5,0.2,0.9,0.5,1.4,1c0,0,0,0.1,0,0.1c-0.3,0.5-0.5,0.9-0.9,1.2
					C294.6,241.6,294.1,241.9,293.3,242z"/>
				<path class="st4" d="M288.6,241.4l5-1.1"/>
				<path class="st4" d="M296,245c-0.7,0.9-2.3,2.2-4.4,2.2c-1,0-2-0.3-2.9-0.8c-0.8-0.5-1.5-1-1.8-1.4c1.3-1.2,2.5-2,4.5-2.1
					c2,0,3.1,0.9,4.4,2C295.9,245,295.9,245,296,245z"/>
				<path class="st4" d="M286.1,245h6.8"/>
			</g>
			<g>
				<path class="st5" d="M133.6,245.2c0,0.4,0,0.8,0,1.2h-0.5c-0.2-0.4-0.4-0.8-0.7-1.2l-6.7-9.5c-0.2-0.3-0.4-0.6-0.7-0.9v10.4
					c0,0.4,0,0.8,0,1.2h-0.5c0-0.4,0-0.8,0-1.2v-9.5c0-0.4,0-0.8,0-1.2h0.7c0.2,0.4,0.5,0.8,0.8,1.2l7.2,10.1v-10.1
					c0-0.4,0-0.8,0-1.2h0.5c0,0.4,0,0.8,0,1.2V245.2z"/>
				<path class="st5" d="M142.1,245.6c0-0.4,0-0.8,0.1-1.2h0c-0.6,1.3-1.7,2.1-3.2,2.1c-1.8,0-2.8-0.8-2.8-2.2
					c0-1.8,1.5-2.7,4.6-2.7c0.6,0,1,0,1.3,0v-0.8c0-1.9-0.8-2.6-2.6-2.6c-0.6,0-1.1,0.1-1.5,0.4c-0.4,0.2-0.7,0.5-1,0.8l-0.2-0.3
					c0.3-0.3,0.7-0.6,1.1-0.8c0.5-0.3,1-0.4,1.7-0.4c2,0,2.9,0.9,2.9,2.9v4.3c0,0.5,0,0.8,0,1.2h-0.4V245.6z M142.1,242
					c-0.4,0-0.8,0-1.3,0c-2.9,0-4.2,0.7-4.2,2.3c0,1.2,0.9,1.9,2.4,1.9c1.5,0,2.5-0.7,3.1-2.1V242z"/>
				<path class="st5" d="M149.6,246.2c-0.4,0.2-0.8,0.3-1.3,0.3c-1.4,0-2.2-0.7-2.2-2v-6.2h-0.8c-0.5,0-0.9,0-1.2,0V238
					c0.4,0,0.7,0,1.2,0h0.8v-1.5c0-0.6,0-0.9,0-1.2h0.5c0,0.3,0,0.7,0,1.2v1.5h1.4c0.5,0,0.9,0,1.2,0v0.4c-0.3,0-0.7,0-1.2,0h-1.4
					v6.1c0,1.1,0.7,1.7,1.8,1.7c0.5,0,0.8-0.1,1.2-0.3L149.6,246.2z"/>
				<path class="st5" d="M157.6,245.2c0,0.5,0,0.9,0,1.2h-0.4v-0.7c0-0.4,0-0.8,0-1.2h0c-0.4,1.2-1.6,2-3.1,2c-1.9,0-3-1.1-3-3.1
					v-4.2c0-0.6,0-0.9,0-1.2h0.5c0,0.3,0,0.6,0,1.2v4.1c0,1.8,0.9,2.8,2.6,2.8c1.8,0,3.1-1.2,3.1-2.8v-4.1c0-0.6,0-0.9,0-1.2h0.5
					c0,0.3,0,0.6,0,1.2V245.2z"/>
				<path class="st5" d="M161.1,240.1c0.4-1.3,1.5-2.2,2.8-2.2c0.5,0,1,0.1,1.3,0.2l-0.1,0.4c-0.4-0.2-0.8-0.3-1.2-0.3
					c-1.2,0-2.3,1.1-2.6,2.6v4.4c0,0.5,0,0.9,0,1.2h-0.5c0-0.3,0-0.7,0-1.2v-5.9c0-0.6,0-0.9,0-1.2h0.4v0.6
					C161.1,239.2,161.1,239.8,161.1,240.1L161.1,240.1z"/>
				<path class="st5" d="M171.9,245.6c0-0.4,0-0.8,0.1-1.2h0c-0.6,1.3-1.7,2.1-3.2,2.1c-1.8,0-2.8-0.8-2.8-2.2
					c0-1.8,1.5-2.7,4.6-2.7c0.6,0,1,0,1.3,0v-0.8c0-1.9-0.8-2.6-2.6-2.6c-0.6,0-1.1,0.1-1.5,0.4c-0.4,0.2-0.7,0.5-1,0.8l-0.2-0.3
					c0.3-0.3,0.7-0.6,1.1-0.8c0.5-0.3,1-0.4,1.7-0.4c2,0,2.9,0.9,2.9,2.9v4.3c0,0.5,0,0.8,0,1.2h-0.4V245.6z M171.9,242
					c-0.4,0-0.8,0-1.3,0c-2.9,0-4.2,0.7-4.2,2.3c0,1.2,0.9,1.9,2.4,1.9c1.5,0,2.5-0.7,3.1-2.1V242z"/>
				<path class="st5" d="M176,234.2c0,0.3,0,0.6,0,1.2v9.8c0,0.5,0,0.9,0,1.2h-0.5c0-0.3,0-0.7,0-1.2v-9.8c0-0.6,0-0.9,0-1.2H176z"
					/>
				<path class="st5" d="M192.1,244.4c0,0.4,0,0.8,0,1.2c-1.7,0.6-3,0.9-4.4,0.9c-3.4,0-5.4-2.3-5.4-6.2c0-3.6,2.1-6.1,5.2-6.1
					c1.3,0,2.4,0.3,3.2,0.9c0.5,0.3,0.9,0.8,1.3,1.3l-0.4,0.3c-0.3-0.5-0.7-0.9-1.1-1.2c-0.8-0.6-1.8-0.9-3-0.9
					c-2.9,0-4.8,2.3-4.8,5.7c0,3.7,1.8,5.9,5,5.9c1.2,0,2.6-0.3,4-0.8v-4.2h-2.6c-0.4,0-0.7,0-1.2,0v-0.4c0.5,0,0.8,0,1.2,0h1.8
					c0.4,0,0.7,0,1.2,0c0,0.5,0,0.8,0,1.2V244.4z"/>
				<path class="st5" d="M200.1,245.6c0-0.4,0-0.8,0.1-1.2h0c-0.6,1.3-1.7,2.1-3.2,2.1c-1.8,0-2.8-0.8-2.8-2.2
					c0-1.8,1.5-2.7,4.6-2.7c0.6,0,1,0,1.3,0v-0.8c0-1.9-0.8-2.6-2.6-2.6c-0.6,0-1.1,0.1-1.5,0.4c-0.4,0.2-0.7,0.5-1,0.8l-0.2-0.3
					c0.3-0.3,0.7-0.6,1.1-0.8c0.5-0.3,1-0.4,1.7-0.4c2,0,2.9,0.9,2.9,2.9v4.3c0,0.5,0,0.8,0,1.2h-0.4V245.6z M200.1,242
					c-0.4,0-0.8,0-1.3,0c-2.9,0-4.2,0.7-4.2,2.3c0,1.2,0.9,1.9,2.4,1.9c1.5,0,2.5-0.7,3.1-2.1V242z"/>
				<path class="st5" d="M203.9,240.1c0.4-1.3,1.5-2.2,2.8-2.2c0.5,0,1,0.1,1.3,0.2l-0.1,0.4c-0.4-0.2-0.8-0.3-1.2-0.3
					c-1.2,0-2.3,1.1-2.6,2.6v4.4c0,0.5,0,0.9,0,1.2h-0.5c0-0.3,0-0.7,0-1.2v-5.9c0-0.6,0-0.9,0-1.2h0.4v0.6
					C203.9,239.2,203.9,239.8,203.9,240.1L203.9,240.1z"/>
				<path class="st5" d="M216.4,245.2c0,0.5,0,0.9,0,1.2l-0.4,0v-1.3c0-0.4,0-0.8,0.1-1.2h0c-0.5,1.7-1.7,2.7-3.4,2.7
					c-2.2,0-3.7-1.7-3.7-4.4c0-2.6,1.5-4.3,3.7-4.3c1.7,0,2.9,1,3.4,2.7h0c0-0.2-0.1-0.9-0.1-1.5v-3.6c0-0.6,0-0.9,0-1.2h0.5
					c0,0.3,0,0.6,0,1.2V245.2z M216,242.2c0-2.4-1.3-4-3.3-4c-2,0-3.3,1.5-3.3,4c0,2.4,1.3,4,3.3,4C214.7,246.2,216,244.6,216,242.2
					z"/>
				<path class="st5" d="M219.2,242.1L219.2,242.1c0,2.5,1.4,4.1,3.6,4.1c0.8,0,1.7-0.2,2.3-0.7c0.3-0.2,0.5-0.4,0.6-0.6l0.3,0.2
					c-0.1,0.2-0.4,0.4-0.6,0.6c-0.7,0.5-1.6,0.8-2.6,0.8c-2.3,0-3.9-1.8-3.9-4.4c0-2.7,1.4-4.3,3.8-4.3c2.2,0,3.5,1.4,3.5,4v0.3
					H219.2z M225.7,241.7c0-2.3-1.1-3.6-3.2-3.6c-2,0-3.3,1.3-3.4,3.6H225.7z"/>
				<path class="st5" d="M234.6,246.4c0-0.4,0-0.7,0-1.2V241c0-1.8-0.9-2.8-2.6-2.8c-1.8,0-3.1,1.2-3.1,2.9v4.1c0,0.5,0,0.9,0,1.2
					h-0.5c0-0.3,0-0.7,0-1.2v-5.9c0-0.6,0-0.9,0-1.2h0.4v0.7c0,0.4,0,0.8-0.1,1.2h0c0.4-1.2,1.6-2,3.1-2c1.9,0,3,1.1,3,3.1v4.2
					c0,0.5,0,0.8,0,1.2H234.6z"/>
				<path class="st5" d="M251.3,243.7c-0.2,0.4-0.5,0.8-0.8,1.1c-1,1.2-2.2,1.7-3.8,1.7c-3.4,0-5.5-2.4-5.5-6.2
					c0-3.6,2.1-6.1,5.2-6.1c1.6,0,2.7,0.4,3.6,1.3c0.4,0.4,0.8,0.9,1.1,1.5l-0.4,0.2c-0.3-0.6-0.6-1.1-1-1.6
					c-0.8-0.8-1.9-1.2-3.4-1.2c-2.9,0-4.8,2.2-4.8,5.7c0,3.7,1.9,5.9,5.1,5.9c1.5,0,2.6-0.5,3.6-1.6c0.2-0.3,0.5-0.6,0.7-1.1
					L251.3,243.7z"/>
				<path class="st5" d="M258.8,245.6c0-0.4,0-0.8,0.1-1.2h0c-0.6,1.3-1.7,2.1-3.2,2.1c-1.8,0-2.8-0.8-2.8-2.2
					c0-1.8,1.5-2.7,4.6-2.7c0.6,0,1,0,1.3,0v-0.8c0-1.9-0.8-2.6-2.6-2.6c-0.6,0-1.1,0.1-1.5,0.4c-0.4,0.2-0.7,0.5-1,0.8l-0.2-0.3
					c0.3-0.3,0.7-0.6,1.1-0.8c0.5-0.3,1-0.4,1.7-0.4c2,0,2.9,0.9,2.9,2.9v4.3c0,0.5,0,0.8,0,1.2h-0.4V245.6z M258.8,242
					c-0.4,0-0.8,0-1.3,0c-2.9,0-4.2,0.7-4.2,2.3c0,1.2,0.9,1.9,2.4,1.9c1.5,0,2.5-0.7,3.1-2.1V242z"/>
				<path class="st5" d="M262.6,237.3c0-2,0.9-3.1,2.5-3.1c0.5,0,0.9,0.1,1.3,0.2l-0.1,0.4c-0.4-0.2-0.7-0.3-1.2-0.3
					c-1.3,0-2.1,0.9-2.1,2.7v0.8h0.8c0.5,0,0.9,0,1.2,0v0.4c-0.3,0-0.7,0-1.2,0H263v6.8c0,0.5,0,0.9,0,1.2h-0.5c0-0.4,0-0.7,0-1.2
					v-6.8h-0.6c-0.6,0-0.9,0-1.2,0V238c0.3,0,0.7,0,1.2,0h0.6V237.3z"/>
				<path class="st5" d="M266.5,242.1L266.5,242.1c0,2.5,1.4,4.1,3.6,4.1c0.8,0,1.7-0.2,2.3-0.7c0.3-0.2,0.5-0.4,0.6-0.6l0.3,0.2
					c-0.1,0.2-0.4,0.4-0.6,0.6c-0.7,0.5-1.6,0.8-2.6,0.8c-2.3,0-3.9-1.8-3.9-4.4c0-2.7,1.4-4.3,3.8-4.3c2.2,0,3.5,1.4,3.5,4v0.3
					H266.5z M273.1,241.7c0-2.3-1.1-3.6-3.2-3.6c-2,0-3.3,1.3-3.4,3.6H273.1z"/>
			</g>
		</g>
	</g>
</g>
</svg>
