<?xml version="1.0" encoding="utf-8"?>
<!-- Generator: Adobe Illustrator 28.1.0, SVG Export Plug-In . SVG Version: 6.00 Build 0)  -->
<svg version="1.1" id="レイヤー_1" xmlns="http://www.w3.org/2000/svg" xmlns:xlink="http://www.w3.org/1999/xlink" x="0px"
	 y="0px" viewBox="0 0 376 62" style="enable-background:new 0 0 376 62;" xml:space="preserve">
<style type="text/css">
	.st0{fill:#202020;}
	.st1{fill-rule:evenodd;clip-rule:evenodd;fill:#202020;}
</style>
<g>
	<path class="st0" d="M13.3,42.5V17.4l20.9,21.8V17.6h1.6v25.5L15,21.3v21.2H13.3z"/>
	<path class="st0" d="M54.2,27.3h1.5v15.2h-1.5v-2.7c-1.5,2.3-3.9,3.1-5.9,3.1c-4,0-7.4-3-7.4-8c0-4.7,3-7.9,7.4-7.9
		c2.4,0,4.5,0.9,5.9,3V27.3z M42.4,34.8c0,3.4,2.1,6.7,6,6.7c3.8,0,5.9-3.2,5.9-6.7c0-4.5-3.3-6.4-5.9-6.4
		C45.3,28.4,42.4,30.6,42.4,34.8z"/>
	<path class="st0" d="M62.7,28.7v13.8h-1.5V28.7h-1.7v-1.4h1.7v-5.4h1.5v5.4h2.6v1.4H62.7z"/>
	<path class="st0" d="M69.8,27.3v9.2c0,1.1,0,2.7,1,3.8c0.9,1.1,2.3,1.2,3,1.2c0.7,0,2.1-0.1,3-1.2c0.9-1.1,1-2.7,1-3.8v-9.2h1.5
		v9.6c0,1.2-0.1,2.8-1.2,4.2c-1.2,1.5-3,1.9-4.3,1.9c-1.3,0-3.2-0.4-4.3-1.9c-1-1.3-1.2-2.9-1.2-4.2v-9.6H69.8z"/>
	<path class="st0" d="M84.6,27.3h1.5v2c0.6-1.3,1.7-2.3,3.4-2.3c0.4,0,1,0.1,1.6,0.4l-0.7,1.3c-0.1-0.1-0.4-0.3-1.1-0.3
		c-3.1,0-3.1,4.1-3.1,6v8.2h-1.5V27.3z"/>
	<path class="st0" d="M106.6,27.3h1.5v15.2h-1.5v-2.7c-1.5,2.3-3.9,3.1-5.9,3.1c-4,0-7.4-3-7.4-8c0-4.7,3-7.9,7.4-7.9
		c2.4,0,4.5,0.9,5.9,3V27.3z M94.8,34.8c0,3.4,2.1,6.7,6,6.7c3.8,0,5.9-3.2,5.9-6.7c0-4.5-3.3-6.4-5.9-6.4
		C97.8,28.4,94.8,30.6,94.8,34.8z"/>
	<path class="st0" d="M114.9,15.3v27.1h-1.5V15.3H114.9z"/>
	<path class="st0" d="M142.6,30.6H153c0,2.3-0.5,5.5-2.5,8.2c-2.2,2.8-5.5,4.2-9.3,4.2c-7.3,0-12.8-5.4-12.8-12.8
		c0-7.4,5.7-12.8,13-12.8c3.5,0,5.8,1.2,7.8,2.7c1,0.8,2,1.7,3,3.1l-1.3,1c-0.7-1.2-1.7-2.2-2.4-2.8c-1.6-1.3-4-2.6-7.1-2.6
		c-6.4,0-11.2,5.1-11.2,11.4c0,6.2,4.7,11.2,11.1,11.2c4.2,0,7.3-2.2,8.6-4.2c1-1.5,1.6-3.5,1.6-5.1h-8.8V30.6z"/>
	<path class="st0" d="M170.1,27.3h1.5v15.2h-1.5v-2.7c-1.5,2.3-3.9,3.1-5.9,3.1c-4,0-7.4-3-7.4-8c0-4.7,3-7.9,7.4-7.9
		c2.4,0,4.5,0.9,5.9,3V27.3z M158.3,34.8c0,3.4,2.1,6.7,6,6.7c3.8,0,5.9-3.2,5.9-6.7c0-4.5-3.3-6.4-5.9-6.4
		C161.2,28.4,158.3,30.6,158.3,34.8z"/>
	<path class="st0" d="M176.9,27.3h1.5v2c0.6-1.3,1.7-2.3,3.4-2.3c0.4,0,1,0.1,1.6,0.4l-0.7,1.3c-0.1-0.1-0.4-0.3-1.1-0.3
		c-3.1,0-3.1,4.1-3.1,6v8.2h-1.5V27.3z"/>
	<path class="st0" d="M199,15.3h1.5v27.1H199v-2.7c-1.5,2.3-3.9,3.1-5.9,3.1c-3.8,0-7.4-2.8-7.4-8.1c0-5.6,3.8-7.9,7.4-7.9
		c2.8,0,4.7,1.3,5.9,3V15.3z M187.2,34.8c0,4.4,2.9,6.7,6,6.7c3,0,5.9-2.3,5.9-6.7c0-3.5-2.2-6.4-6-6.4
		C189.9,28.4,187.2,30.5,187.2,34.8z"/>
	<path class="st0" d="M206.4,35.1c0,3.9,2.8,6.4,6,6.4c2.5,0,4.3-1.5,5.3-3.5l1.3,0.7c-0.9,1.7-2.9,4.1-6.7,4.1
		c-4.7,0-7.5-3.5-7.5-7.9c0-5.3,3.7-8,7.4-8c4.1,0,7.2,3.3,7.2,8.1H206.4z M217.8,33.7c-0.4-3-2.6-5.3-5.6-5.3
		c-3.1,0-5.3,2.3-5.7,5.3H217.8z"/>
	<path class="st0" d="M223.8,27.3h1.5v2.4c0.7-1.3,2.1-2.7,4.7-2.7c2.7,0,3.9,1.6,4.2,2.1c0.7,1.1,0.7,2.5,0.7,3.8v9.6h-1.5v-9.6
		c0-1,0-2.2-0.6-3.1c-0.3-0.6-1.2-1.5-3-1.5c-2.1,0-3.2,1.1-3.7,2.1c-0.7,1.2-0.8,2.6-0.8,4.1v7.9h-1.5V27.3z"/>
	<path class="st0" d="M269.5,22.7c-2.1-2.5-5.2-3.9-8.4-3.9c-6.4,0-11.1,5.1-11.1,11.4c0,7.4,6.1,11.2,11.2,11.2
		c2.5,0,5.8-1,8.3-3.8v2.2c-2.5,2.2-5.6,3.1-8.3,3.1c-7.4,0-13-5.8-13-12.8c0-7.1,5.7-12.8,12.9-12.8c4.7,0,7.6,2.5,8.3,3.2V22.7z"
		/>
	<path class="st0" d="M286.5,27.3h1.5v15.2h-1.5v-2.7c-1.5,2.3-3.9,3.1-5.9,3.1c-4,0-7.4-3-7.4-8c0-4.7,3-7.9,7.4-7.9
		c2.4,0,4.5,0.9,5.9,3V27.3z M274.7,34.8c0,3.4,2.1,6.7,6,6.7c3.8,0,5.9-3.2,5.9-6.7c0-4.5-3.3-6.4-5.9-6.4
		C277.6,28.4,274.7,30.6,274.7,34.8z"/>
	<path class="st0" d="M294.8,28.7v13.8h-1.5V28.7h-1.7v-1.4h1.7v-7.2c0-4.3,2.2-5.2,4-5.2c0.6,0,1,0.1,1.3,0.2v1.4
		c-0.4-0.1-0.7-0.2-1.2-0.2c-1.3,0-2.6,0.6-2.6,4.1v6.9h3.8v1.4H294.8z"/>
	<path class="st0" d="M301.9,35.1c0,3.9,2.8,6.4,6,6.4c2.5,0,4.3-1.5,5.3-3.5l1.3,0.7c-0.9,1.7-2.9,4.1-6.7,4.1
		c-4.7,0-7.5-3.5-7.5-7.9c0-5.3,3.6-8,7.4-8c4.1,0,7.2,3.3,7.2,8.1H301.9z M313.3,33.7c-0.4-3-2.6-5.3-5.6-5.3
		c-3.1,0-5.3,2.3-5.7,5.3H313.3z"/>
</g>
<g>
	<g>
		<g>
			<path class="st0" d="M324.5,52.1c-0.1,0-0.1,0-0.2,0c-0.1,0-0.2-0.1-0.3-0.2c-0.1-0.1-0.1-0.2-0.1-0.3c0-0.1,0-0.2,0.1-0.3
				l3.6-6.7l-0.2-1.2c-0.3-1.7,0.7-3.3,2.4-3.7c0.7-0.1,1.4-0.1,2,0.2c0.6,0.3,1.1,0.8,1.4,1.4l1.6,0.6c0,0,0.1,0.1,0.1,0.1
				c0,0,0,0.1,0,0.1l-1.1,1.1l0.3,1.3c0.3,1.5,0,3-0.8,4.2c-0.8,1.2-2.1,2.1-3.5,2.4l-4.9,1C324.6,52.1,324.6,52.1,324.5,52.1z
				 M330.4,39.8c-0.2,0-0.4,0-0.6,0.1c-1.5,0.3-2.5,1.8-2.2,3.4l0.3,1.3c0,0,0,0.1,0,0.1l-3.6,6.8c0,0.1,0,0.1,0,0.2
				c0,0.1,0,0.1,0.1,0.2c0,0.1,0.1,0.1,0.1,0.1c0.1,0,0.1,0,0.2,0l4.9-1c1.4-0.3,2.6-1.1,3.4-2.3c0.8-1.2,1.1-2.6,0.8-4l-0.3-1.3
				c0,0,0-0.1,0-0.1l1-1l-1.5-0.6c0,0-0.1,0-0.1-0.1c-0.3-0.6-0.7-1-1.3-1.3C331.3,39.9,330.8,39.8,330.4,39.8z"/>
			<path class="st0" d="M326.3,51.7C326.3,51.7,326.3,51.7,326.3,51.7c-0.1,0-0.1-0.1-0.1-0.2l3.1-5.8c0-0.1,0.1-0.1,0.2-0.1
				c0.1,0,0.1,0.1,0.1,0.2l-3.1,5.8C326.4,51.7,326.4,51.7,326.3,51.7z"/>
		</g>
	</g>
	<path class="st1" d="M353.8,18.5c1.5-0.5,3.6-1.6,4.3-4.4c0.8-3.2,0.9-5.5-0.6-7.5c-0.2,0.2-0.5,0.4-0.8,0.6
		c-1.8,1.3-3.8,2.7-4.5,5.4c-0.1,1.7,0,2.5,0.2,3.2c0.1,0.3,0.2,0.6,0.3,0.9l0,0v0v0c0,0.1,0.1,0.2,0.2,0.4c0.1,0.3,0.2,0.6,0.4,0.9
		c0.2-1.4,0.7-3,1.2-4.3c0.4-0.9,0.8-1.8,1.1-2.4c0.2-0.3,0.3-0.6,0.5-0.8c0.1-0.2,0.3-0.4,0.4-0.5l0.3,0.3
		c-0.1,0.1-0.2,0.2-0.3,0.4c-0.1,0.2-0.3,0.5-0.5,0.8c-0.3,0.6-0.7,1.5-1.1,2.4C354.5,15.2,354,17,353.8,18.5z M353.8,18.9
		c1.6-0.5,4-1.6,4.8-4.8c0.8-3.3,0.9-5.7-0.6-7.9c-0.1-0.1-0.2-0.2-0.3-0.3L357.6,6c-0.3,0.2-0.6,0.5-1,0.7
		c-1.8,1.3-3.9,2.9-4.7,5.7c-0.2,2.4,0.1,3.1,0.6,4.3c0.2,0.5,0.5,1.2,0.8,2.2c0,0.1,0,0.3,0,0.4h0V21c-0.2,0.8-0.7,2.4-1.4,4.3
		l-0.5-1.3c0,0,0.1,0,0.1,0c1.2-1.2,0.4-5.5-0.5-7.2c-2.7-3.4-4.1-4.1-5.2-4.7c-0.1-0.1-0.3-0.1-0.4-0.2c-0.1-0.1-0.3-0.2-0.4-0.2
		c0,0.1,0,0.3,0,0.5c0,0.1,0,0.3-0.1,0.4v0c-0.2,1.6-0.7,4.9,0.5,7.2c1.4,2.6,3.8,4,5.5,4.2l0.8,1.8l0.1,0c-0.3,0.7-0.6,1.4-0.9,2.1
		c-1.4,2.7-3.4,5.1-4.2,5.9c-0.2,0.2-0.4,0.4-0.6,0.6c-0.2-0.6-0.5-1.3-0.7-2c1.9-1.6,2.1-5,0.6-9.7c-2.2-4.1-5.4-6.9-7.1-7
		c-1,1.6-1.9,5.9-0.2,10.1c1.6,3.9,3.9,6.3,6.3,6.7c0.3,0.9,0.6,1.7,0.8,2.4c-1.6,1.8-4.1,4.8-5.8,8.1l-0.2-0.5l0,0
		c-0.2-0.5-0.5-1-0.8-1.6c0.9-2.6,2-6.5-0.6-11c-2.1-3.5-6.3-4.8-9-5.6h0h0h0h0c-0.6-0.2-1.2-0.4-1.6-0.5c-0.2-0.1-0.3-0.1-0.4-0.2
		c0,0.1-0.1,0.3-0.1,0.4c-0.8,3.2-1,6.4,1.6,10.7c2.6,4.4,7.1,6,9.7,6.2c0.3,0.6,0.6,1.2,0.8,1.7l0,0c0.1,0.3,0.3,0.6,0.4,0.8
		c-1,2-1.5,3.6-1.7,4.7c-0.1,0.6-0.1,1-0.1,1.4c0,0.4,0.1,0.6,0.2,0.8l0.4-0.2c-0.1-0.1-0.1-0.3-0.1-0.6c0-0.3,0-0.8,0.1-1.3
		c0.2-1.1,0.7-2.6,1.7-4.6h1.8c1.8,2,6.6,5.4,11.4,5.3c5-0.1,9.1-3.4,10.7-5.5l-0.4-0.3c-3.2-2.6-5.9-4.9-10.7-4.8
		c-4.9,0.1-7.8,2.1-10.9,4.9h-1.6c1.7-3.3,4.2-6.4,5.8-8.2l2.7-0.6c1.4,1.5,5,2.9,8.6,2c3.8-0.7,4.7-2.4,6.1-4.8l0.2-0.3
		c-2.4-2.5-4.2-3.4-8.2-2.5c-4,0.9-6.1,2.5-7,5.1c0,0,0,0.1,0,0.1l-1.9,0.4c0.1-0.1,0.2-0.2,0.3-0.3c0.9-0.9,2.9-3.3,4.3-6
		c0.5-1,0.9-2,1.3-2.9c0.6-0.3,1.3-0.5,2-0.7c1.3,1.1,4.4,2.1,7.6,0.5c2.7-1.3,3.6-4,4.4-6.2c0.2-0.5,0.4-1,0.5-1.5
		c0.1-0.1,0.1-0.3,0.2-0.4c-0.2,0-0.3,0-0.4,0c-2.4-0.2-4.3-0.3-7.7,1.3c-3.5,1.7-4.7,3.9-4.9,6c-0.5,0.2-1,0.3-1.5,0.5
		c0.6-1.5,0.9-2.8,1.1-3.5l0,0v-1.7l0,0C353.8,19.2,353.8,19.1,353.8,18.9z M342.3,43.5h13.8v-0.4h-13.7c3-2.6,5.7-4.4,10.2-4.5
		c4.6-0.1,7.3,2.1,10.5,4.7l0,0l0,0l0,0c-1.7,2-5.5,4.9-10.1,5c-2.4,0.1-4.8-0.8-6.8-1.9C344.6,45.5,343.2,44.4,342.3,43.5z
		 M349.2,34.2l8.6-1.9l-0.1-0.4l-8.9,1.9l0,0c0.5-1.1,1.2-2,2.2-2.8c1.1-0.8,2.5-1.4,4.5-1.8c1.9-0.5,3.3-0.4,4.5,0
		c1.1,0.4,2,1.1,3.1,2.2l0,0c-0.7,1.2-1.2,2.1-2,2.8c-0.8,0.8-1.9,1.4-3.8,1.8v0l0,0c-1.9,0.4-3.8,0.3-5.4-0.2
		C350.7,35.3,349.8,34.8,349.2,34.2z M355,24.2c0.7-0.2,1.5-0.4,2.2-0.7l0,0c0.6-0.2,1.2-0.3,1.7-0.5c1-0.3,1.9-0.6,2.6-0.9
		c0.3-0.2,0.6-0.3,0.8-0.5c0.2-0.2,0.4-0.4,0.4-0.6l-0.4-0.1c0,0.1-0.1,0.2-0.3,0.3c-0.2,0.1-0.4,0.3-0.8,0.4
		c-0.6,0.3-1.5,0.6-2.6,0.9c-0.5,0.2-1.1,0.3-1.7,0.5c-0.8,0.2-1.6,0.5-2.5,0.7c0.1-0.9,0.5-1.9,1.1-2.8c0.7-1,1.8-1.9,3.6-2.7
		c1.7-0.8,3.1-1.2,4.3-1.3c1-0.1,2-0.1,3,0c-0.2,0.4-0.3,0.9-0.5,1.4v0l-0.1,0.2c-0.3,0.7-0.5,1.5-0.9,2.3c-0.7,1.5-1.6,2.8-3.3,3.6
		c-1.7,0.8-3.3,0.9-4.6,0.6C356.3,25,355.5,24.6,355,24.2z M350.6,17c-1.7-2.1-2.8-3.1-3.7-3.7c-0.4-0.3-0.8-0.5-1.1-0.7
		c-0.1,0-0.1-0.1-0.2-0.1v0c-0.1,0-0.2-0.1-0.3-0.1c0,0.1,0,0.2,0,0.3c0,0.1,0,0.2,0,0.3c-0.1,0.6-0.2,1.3-0.2,2
		c-0.1,1.5,0,3.3,0.7,4.6c1.2,2.4,3.4,3.6,4.9,3.9l-2.5-5.8l0.4-0.2l2.6,6c0,0,0.1,0,0.1,0c0.2-0.2,0.3-0.6,0.3-1
		c0.1-0.6,0.1-1.2,0-1.9C351.4,19.2,351,17.8,350.6,17z M345.5,22.9c0.7,2.3,1,4.3,0.9,5.8c-0.1,1.4-0.5,2.5-1.3,3.2
		c-0.3-1-0.6-2.1-1-3.1v0c-0.3-0.9-0.5-1.7-0.8-2.5c-0.4-1.4-0.9-2.8-1.3-3.7c-0.2-0.5-0.4-0.9-0.6-1.2c-0.1-0.1-0.2-0.3-0.3-0.4
		c-0.1-0.1-0.2-0.2-0.4-0.2v0.4c0,0,0.1,0,0.1,0.1c0.1,0.1,0.1,0.1,0.2,0.3c0.2,0.2,0.4,0.6,0.6,1.1c0.4,0.9,0.8,2.2,1.3,3.7
		c0.3,0.8,0.5,1.7,0.8,2.5l0,0v0l0,0c0.3,1,0.6,2.1,0.9,3c-2.1-0.5-4.2-2.6-5.7-6.3c-0.8-2-1-4-0.9-5.8c0.1-1.6,0.5-2.9,0.9-3.6
		c0.3,0.1,0.7,0.2,1.1,0.5c0.5,0.3,1.2,0.8,1.8,1.4C343.1,19.2,344.4,20.9,345.5,22.9z M338.6,40.2c0.9-2.5,1.7-6.2-0.7-10.3
		c-1.3-2.2-3.5-3.5-5.6-4.3c-1.1-0.4-2.1-0.8-3-1l-0.1,0c-0.6-0.2-1.1-0.3-1.5-0.5c-0.4,1.5-0.6,3-0.5,4.5c0.1,1.7,0.7,3.6,2,5.8
		c2.4,4.1,6.6,5.7,9.1,6c-0.4-0.7-0.8-1.5-1.2-2.2c-1.1-2-2.3-4-3.3-5l0,0l0,0c-0.3-0.4-0.8-1.1-1.2-1.8c-0.5-0.7-1-1.3-1.3-1.6
		l0.3-0.3c0.4,0.4,0.9,1,1.3,1.7c0.5,0.7,0.9,1.3,1.2,1.8c1,1.1,2.3,3.1,3.4,5.1C337.8,38.7,338.2,39.5,338.6,40.2z"/>
</g>
</svg>
