<?xml version="1.0" encoding="UTF-8"?>
<svg id="_レイヤー_2" data-name="レイヤー 2" xmlns="http://www.w3.org/2000/svg" viewBox="0 0 312 41.37">
  <defs>
    <style>
      .cls-1 {
        fill: none;
      }

      .cls-1, .cls-2, .cls-3 {
        stroke-width: 0px;
      }

      .cls-3 {
        fill: #202020;
      }
    </style>
  </defs>
  <g id="_レイヤー_3" data-name="レイヤー 3">
    <g>
      <g>
        <path class="cls-3" d="M283.7,31.1c-.02-.08-.07-.15-.15-.19l-1.54-.62c-.32-.6-.82-1.09-1.43-1.38-.64-.31-1.37-.4-2.07-.26-1.73.36-2.84,2.08-2.48,3.84l.24,1.17-3.58,6.67c-.06.12-.09.26-.08.38,0,.14.06.26.14.37.08.11.19.19.32.24.08.03.16.04.25.04.05,0,.1,0,.14-.01l4.9-1.01c1.5-.31,2.78-1.18,3.62-2.45.83-1.26,1.13-2.82.83-4.3l-.25-1.21,1.06-1.07c.06-.06.09-.15.07-.23ZM282.11,32.14c-.06.06-.09.15-.07.23l.28,1.34c.28,1.34,0,2.77-.76,3.91-.77,1.16-1.94,1.95-3.3,2.23l-2.66.55,2.82-5.26c.07-.13.02-.28-.1-.35-.13-.06-.28-.02-.35.1l-3.03,5.64-1.59.33s-.08,0-.11,0c-.04-.01-.07-.04-.09-.07-.02-.03-.04-.06-.04-.1,0-.04,0-.07.02-.1l3.62-6.75c.03-.05.04-.11.02-.17l-.26-1.26c-.3-1.48.63-2.93,2.08-3.24.18-.04.37-.06.56-.06.41,0,.82.09,1.18.27.54.26.98.7,1.24,1.24.03.06.08.1.13.12l1.27.51-.89.89Z"/>
        <g>
          <path class="cls-1" d="M289.27,12.84v-.51c.85,0,1.56,2.07,2.97,6.79.26.88.53,1.77.79,2.6.58-.6.92-1.48,1-2.63.1-1.35-.16-3.02-.76-4.95-.85-1.57-1.95-3.04-3.1-4.14-.52-.49-1.04-.9-1.51-1.18-.32-.19-.62-.32-.88-.39-.39.77-.67,1.9-.77,3.07-.1,1.18-.05,2.99.73,4.9,1.2,2.94,2.95,4.88,4.75,5.34-.25-.8-.5-1.64-.75-2.47-.72-2.4-1.92-6.42-2.48-6.43Z"/>
          <path class="cls-1" d="M296.06,9.57l2.18,5.11c.13-.2.22-.48.26-.84.06-.45.05-1.01-.02-1.63-.13-1.11-.46-2.34-.82-3.08-1.2-1.49-2.19-2.5-3.1-3.15-.37-.26-.68-.43-.97-.59l-.24-.13s-.07-.04-.1-.05l-.07.44c-.07.49-.15,1.08-.19,1.72-.1,1.63.1,2.95.6,3.91,1.04,2.01,2.8,3,4.05,3.3l-2.05-4.83.47-.2Z"/>
          <path class="cls-1" d="M281.08,20.05l.36-.36c.74.73,2.16,2.86,2.22,2.95,1.18,1.17,2.65,3.88,3.79,6.1.81-2.43,1.27-5.31-.65-8.57-.91-1.54-2.48-2.74-4.79-3.67-.89-.36-1.76-.63-2.57-.87l-.16-.05c-.46-.14-.87-.27-1.21-.39-.28,1.09-.53,2.38-.42,3.79.12,1.58.68,3.2,1.72,4.95,2.09,3.53,5.64,4.8,7.63,5.05-1.12-2.2-2.58-4.87-3.73-6.03-.53-.79-1.62-2.36-2.18-2.91Z"/>
          <path class="cls-1" d="M303.14,3.29c-.51.53-2.3,4.2-2.62,6.98,2.08-.39,3.44-1.45,4.17-3.24.98-2.43,1.39-4.35.39-6.33-.21.12-.43.24-.65.36-1.65.89-3.51,1.9-4.39,4.08-.28,1.4-.27,2.05-.15,2.68.05.24.11.47.18.74l.1.38s.03.11.04.16c.6-2.7,2.09-5.66,2.57-6.16l.37.35Z"/>
          <path class="cls-1" d="M303.89,22.3l-7.25,1.55c.5.46,1.26.89,2.15,1.17,1.46.48,3.08.55,4.54.21l.06.25-.05-.25c1.48-.29,2.48-.75,3.25-1.48.67-.63,1.14-1.45,1.7-2.4h0c-1-1.01-1.76-1.54-2.6-1.83-1.01-.34-2.17-.33-3.77.04-1.64.38-2.89.89-3.81,1.56-.81.59-1.4,1.35-1.79,2.28l7.47-1.6.11.5Z"/>
          <path class="cls-1" d="M308.74,9.25c-1.13.12-2.29.47-3.64,1.11-1.34.63-2.35,1.41-3.01,2.3-.5.67-.8,1.41-.93,2.24.66-.21,1.33-.41,2-.6,1.95-.57,4.37-1.28,4.45-1.82l.5.08c-.13.81-1.82,1.35-4.81,2.23-.59.17-1.19.35-1.78.54.44.29,1.06.58,1.86.73.9.17,2.31.22,3.91-.54,1.2-.57,2.07-1.53,2.76-3.02.28-.61.5-1.23.74-1.92l.09-.26c.12-.36.24-.7.37-1.03-.85-.08-1.65-.13-2.52-.04Z"/>
          <path class="cls-1" d="M302.38,31.77h-11.59c.72.72,1.84,1.63,3.27,2.43,1.38.77,3.51,1.71,5.77,1.63,3.99-.09,7.23-2.72,8.54-4.26l-.02-.02c-2.6-2.15-4.85-4.01-8.63-4.01-.08,0-.17,0-.25,0-3.92.09-6.27,1.7-8.58,3.71h11.48v.51Z"/>
          <path class="cls-3" d="M311.66,8.81c-.97-.1-1.93-.18-2.97-.07-1.19.13-2.4.49-3.8,1.16-1.41.67-2.49,1.5-3.2,2.46-.6.81-.95,1.69-1.07,2.72v.02c-.37.12-.73.25-1.08.38.45-1.22.76-2.28.91-2.89v-1.4h0c0-.12.02-.26.03-.39,2.3-.41,3.88-1.59,4.67-3.56,1.04-2.59,1.48-4.77.24-7l-.13-.23-.22.13c-.28.16-.57.32-.87.48-1.72.93-3.66,1.99-4.63,4.38-.31,1.53-.29,2.23-.16,2.92.05.25.11.49.2.82l.09.33c.1.38.21.85.32,1.46-.02.2-.04.41-.04.6h-.01v1.4c-.16.66-.56,1.99-1.14,3.48l-.33-.78h0l.08-.09c.24-.27.39-.68.46-1.21.07-.49.06-1.08-.02-1.75-.13-1.16-.48-2.46-.9-3.29-1.26-1.57-2.29-2.62-3.23-3.29-.39-.28-.73-.46-1.03-.62l-.24-.13c-.14-.07-.28-.14-.41-.22l-.34-.2-.16,1.2c-.07.5-.15,1.1-.19,1.76-.1,1.72.12,3.13.66,4.18,1.23,2.37,3.35,3.42,4.75,3.63l.62,1.45.05-.02c-.23.56-.49,1.14-.77,1.7-1.14,2.28-2.85,4.29-3.6,5.03-.13.13-.28.29-.44.46-.17-.46-.35-.97-.53-1.52.78-.69,1.23-1.75,1.33-3.14.1-1.42-.17-3.16-.79-5.16l-.02-.04c-.87-1.63-2.01-3.15-3.21-4.29-.56-.53-1.09-.95-1.6-1.25-.45-.27-.88-.44-1.24-.49l-.17-.02-.09.15c-.47.83-.81,2.12-.92,3.43-.1,1.24-.05,3.13.77,5.14,1.35,3.3,3.31,5.35,5.4,5.7.23.7.45,1.36.67,1.91-1.37,1.51-3.38,4.05-4.81,6.75l-.15-.31c-.18-.37-.4-.81-.63-1.27.94-2.64,1.62-5.82-.54-9.47-.97-1.64-2.61-2.91-5.03-3.88-.91-.36-1.79-.64-2.61-.89l-.16-.05c-.58-.18-1.08-.33-1.43-.48l-.27-.12-.08.29c-.32,1.19-.63,2.63-.51,4.24.13,1.66.71,3.35,1.79,5.17,2.3,3.9,6.33,5.17,8.34,5.33.24.49.48.95.67,1.35l.32.64c-1.71,3.46-1.69,5.36-1.4,5.94l.45-.23c-.18-.37-.28-2.07,1.39-5.46h1.38c.88.99,2.27,2.06,3.73,2.88,1.4.78,3.54,1.69,5.85,1.69.06,0,.12,0,.18,0,4.34-.1,7.75-2.96,9.08-4.64l.16-.2-.4-.33c-2.74-2.26-5.11-4.2-9.22-4.13-4.33.09-6.9,2.04-9.34,4.22h-1.16c1.44-2.74,3.5-5.32,4.86-6.81l2.23-.48c.54.61,1.45,1.17,2.57,1.54.91.29,1.88.44,2.83.44.66,0,1.32-.07,1.93-.22h.05c1.58-.32,2.66-.82,3.5-1.62.72-.68,1.21-1.53,1.79-2.51l.2-.33-.14-.14c-1.13-1.16-1.98-1.77-2.94-2.1-1.1-.38-2.35-.37-4.05.03-1.71.4-3.02.94-4,1.65-.95.69-1.62,1.57-2.05,2.69l-.05.12h0s-1.27.28-1.27.28c.03-.03.08-.08.11-.11.76-.77,2.52-2.83,3.69-5.17.4-.81.76-1.64,1.07-2.43.52-.2,1.08-.39,1.65-.58.57.48,1.41.87,2.34,1.05.34.06.75.11,1.22.11.86,0,1.89-.17,3.01-.7,1.31-.62,2.26-1.66,3.01-3.27.29-.63.52-1.26.76-1.97l.09-.26c.16-.47.32-.91.49-1.32l.14-.32-.34-.03ZM300.17,8.94l-.1-.38c-.07-.27-.13-.5-.18-.74-.12-.63-.14-1.28.15-2.68.88-2.18,2.74-3.19,4.39-4.08.22-.12.44-.24.65-.36,1,1.98.59,3.9-.39,6.33-.72,1.79-2.09,2.85-4.17,3.24.32-2.78,2.12-6.46,2.62-6.98l-.37-.35c-.48.5-1.98,3.46-2.57,6.16-.01-.05-.03-.11-.04-.16ZM293.59,11.3c-.5-.96-.7-2.28-.6-3.91.04-.64.12-1.23.19-1.72l.07-.44s.07.04.1.05l.24.13c.29.15.6.32.97.59.9.64,1.9,1.66,3.1,3.15.37.74.7,1.98.82,3.08.07.62.08,1.18.02,1.63-.05.36-.14.64-.26.84l-2.18-5.11-.47.2,2.05,4.83c-1.25-.3-3.01-1.29-4.05-3.3ZM287.75,16.4c-.78-1.91-.83-3.72-.73-4.9.1-1.16.38-2.29.77-3.07.26.07.55.2.88.39.47.28.99.69,1.51,1.18,1.16,1.09,2.26,2.56,3.1,4.14.6,1.93.85,3.6.76,4.95-.08,1.15-.42,2.03-1,2.63-.26-.83-.53-1.72-.79-2.6-1.42-4.72-2.12-6.79-2.97-6.79v.51c.56,0,1.76,4.03,2.48,6.43.25.83.5,1.67.75,2.47-1.8-.46-3.55-2.39-4.75-5.34ZM279.36,23.93c-1.03-1.75-1.6-3.37-1.72-4.95-.11-1.41.14-2.7.42-3.79.33.13.75.25,1.21.39l.16.05c.81.25,1.68.51,2.57.87,2.31.93,3.87,2.13,4.79,3.67,1.92,3.26,1.47,6.14.65,8.57-1.13-2.23-2.61-4.93-3.79-6.1-.06-.09-1.48-2.22-2.22-2.95l-.36.36c.56.56,1.65,2.12,2.18,2.91,1.16,1.16,2.62,3.83,3.73,6.03-1.99-.25-5.55-1.52-7.63-5.05ZM298.09,21.12c.92-.67,2.17-1.18,3.81-1.56,1.6-.38,2.76-.39,3.77-.04.84.29,1.6.82,2.6,1.83h0c-.55.95-1.03,1.77-1.7,2.4-.77.73-1.77,1.19-3.25,1.48l.05.25-.06-.25c-1.46.34-3.08.27-4.54-.21-.88-.29-1.65-.71-2.15-1.17l7.25-1.55-.11-.5-7.47,1.6c.39-.93.98-1.69,1.79-2.28ZM299.47,27.55c.09,0,.17,0,.25,0,3.78,0,6.03,1.86,8.63,4.01l.02.02c-1.31,1.54-4.55,4.17-8.54,4.26-2.26.08-4.39-.86-5.77-1.63-1.43-.8-2.55-1.71-3.27-2.43h11.59v-.51h-11.48c2.31-2.02,4.66-3.63,8.58-3.71ZM310.89,10.32l-.09.26c-.24.69-.46,1.31-.74,1.92-.69,1.49-1.57,2.46-2.76,3.02-1.6.76-3.01.71-3.91.54-.8-.15-1.42-.44-1.86-.73.59-.18,1.18-.36,1.78-.54,2.99-.88,4.68-1.41,4.81-2.23l-.5-.08c-.08.53-2.51,1.25-4.45,1.82-.67.2-1.34.4-2,.6.13-.83.43-1.57.93-2.24.66-.89,1.67-1.66,3.01-2.3,1.35-.64,2.5-.99,3.64-1.11.87-.09,1.67-.05,2.52.04-.13.33-.25.67-.37,1.03Z"/>
        </g>
      </g>
      <g>
        <path class="cls-2" d="M0,32.51V10.49l18.29,19.14V10.72h1.44v22.35L1.44,13.92v18.59H0Z"/>
        <path class="cls-2" d="M35.86,19.18h1.31v13.33h-1.31v-2.39c-1.34,2.06-3.46,2.74-5.2,2.74-3.49,0-6.5-2.64-6.5-7.02,0-4.12,2.61-6.96,6.5-6.96,2.09,0,3.92.82,5.2,2.61v-2.32ZM25.53,25.75c0,3.01,1.86,5.88,5.23,5.88s5.16-2.81,5.16-5.88c0-3.95-2.91-5.62-5.19-5.62-2.64,0-5.19,1.99-5.19,5.62Z"/>
        <path class="cls-2" d="M43.26,20.42v12.09h-1.31v-12.09h-1.47v-1.24h1.47v-4.77h1.31v4.77h2.32v1.24h-2.32Z"/>
        <path class="cls-2" d="M49.5,19.18v8.04c0,.95.03,2.35.85,3.33.82.98,2.02,1.08,2.65,1.08s1.83-.1,2.64-1.08c.82-.98.85-2.39.85-3.33v-8.04h1.31v8.39c0,1.08-.1,2.48-1.01,3.66-1.01,1.31-2.61,1.63-3.79,1.63s-2.78-.33-3.79-1.63c-.91-1.18-1.01-2.58-1.01-3.66v-8.39h1.31Z"/>
        <path class="cls-2" d="M62.49,19.18h1.31v1.73c.49-1.14,1.5-2.02,2.94-2.02.36,0,.91.07,1.4.33l-.65,1.18c-.13-.1-.39-.26-.98-.26-2.68,0-2.71,3.56-2.71,5.23v7.15h-1.31v-13.33Z"/>
        <path class="cls-2" d="M81.83,19.18h1.31v13.33h-1.31v-2.39c-1.34,2.06-3.46,2.74-5.19,2.74-3.5,0-6.5-2.64-6.5-7.02,0-4.12,2.61-6.96,6.5-6.96,2.09,0,3.92.82,5.19,2.61v-2.32ZM71.51,25.75c0,3.01,1.86,5.88,5.23,5.88s5.16-2.81,5.16-5.88c0-3.95-2.91-5.62-5.19-5.62-2.65,0-5.19,1.99-5.19,5.62Z"/>
        <path class="cls-2" d="M89.14,8.7v23.81h-1.31V8.7h1.31Z"/>
        <path class="cls-2" d="M113.4,22.06h9.15c0,1.99-.42,4.87-2.22,7.15-1.93,2.45-4.87,3.66-8.2,3.66-6.4,0-11.27-4.7-11.27-11.2s5.03-11.24,11.37-11.24c3.07,0,5.13,1.04,6.83,2.35.91.72,1.73,1.5,2.61,2.74l-1.14.91c-.62-1.05-1.5-1.93-2.09-2.42-1.37-1.14-3.53-2.29-6.24-2.29-5.59,0-9.83,4.44-9.83,10s4.12,9.83,9.74,9.83c3.72,0,6.4-1.9,7.58-3.69.85-1.31,1.37-3.11,1.44-4.51h-7.71v-1.31Z"/>
        <path class="cls-2" d="M137.5,19.18h1.31v13.33h-1.31v-2.39c-1.34,2.06-3.46,2.74-5.2,2.74-3.49,0-6.5-2.64-6.5-7.02,0-4.12,2.61-6.96,6.5-6.96,2.09,0,3.92.82,5.2,2.61v-2.32ZM127.18,25.75c0,3.01,1.86,5.88,5.23,5.88s5.16-2.81,5.16-5.88c0-3.95-2.91-5.62-5.19-5.62-2.64,0-5.19,1.99-5.19,5.62Z"/>
        <path class="cls-2" d="M143.5,19.18h1.31v1.73c.49-1.14,1.5-2.02,2.94-2.02.36,0,.91.07,1.41.33l-.65,1.18c-.13-.1-.39-.26-.98-.26-2.68,0-2.71,3.56-2.71,5.23v7.15h-1.31v-13.33Z"/>
        <path class="cls-2" d="M162.84,8.7h1.31v23.81h-1.31v-2.39c-1.34,2.06-3.46,2.74-5.16,2.74-3.36,0-6.53-2.42-6.53-7.09s3.3-6.89,6.53-6.89c2.42,0,4.12,1.11,5.16,2.61v-12.81ZM152.51,25.75c0,3.89,2.55,5.88,5.23,5.88s5.16-1.99,5.16-5.88c0-3.1-1.93-5.62-5.23-5.62-2.74,0-5.16,1.9-5.16,5.62Z"/>
        <path class="cls-2" d="M169.36,26.01c0,3.4,2.48,5.62,5.29,5.62,2.16,0,3.79-1.27,4.64-3.04l1.11.65c-.79,1.5-2.55,3.63-5.85,3.63-4.15,0-6.57-3.07-6.57-6.96,0-4.64,3.2-7.02,6.47-7.02,3.59,0,6.3,2.87,6.3,7.12h-11.4ZM179.39,24.77c-.33-2.64-2.29-4.64-4.93-4.64s-4.64,2.06-5,4.64h9.93Z"/>
        <path class="cls-2" d="M184.61,19.18h1.31v2.09c.62-1.11,1.83-2.39,4.08-2.39,2.39,0,3.4,1.41,3.69,1.86.59.95.65,2.19.65,3.37v8.39h-1.31v-8.39c0-.91-.03-1.93-.52-2.68-.29-.49-1.01-1.31-2.61-1.31-1.83,0-2.78.98-3.27,1.86-.59,1.05-.72,2.29-.72,3.59v6.93h-1.31v-13.33Z"/>
        <path class="cls-2" d="M224.68,15.17c-1.86-2.19-4.54-3.43-7.35-3.43-5.59,0-9.77,4.47-9.77,10,0,6.47,5.39,9.83,9.8,9.83,2.19,0,5.1-.88,7.32-3.3v1.9c-2.22,1.96-4.9,2.71-7.25,2.71-6.53,0-11.37-5.13-11.37-11.2s5.03-11.24,11.3-11.24c4.15,0,6.66,2.22,7.32,2.84v1.9Z"/>
        <path class="cls-2" d="M239.63,19.18h1.31v13.33h-1.31v-2.39c-1.34,2.06-3.46,2.74-5.19,2.74-3.5,0-6.5-2.64-6.5-7.02,0-4.12,2.61-6.96,6.5-6.96,2.09,0,3.92.82,5.19,2.61v-2.32ZM229.31,25.75c0,3.01,1.86,5.88,5.23,5.88s5.16-2.81,5.16-5.88c0-3.95-2.91-5.62-5.19-5.62-2.65,0-5.19,1.99-5.19,5.62Z"/>
        <path class="cls-2" d="M246.94,20.42v12.09h-1.31v-12.09h-1.5v-1.24h1.5v-6.34c0-3.76,1.93-4.54,3.5-4.54.55,0,.91.13,1.14.2v1.21c-.33-.13-.62-.16-1.01-.16-1.14,0-2.32.49-2.32,3.56v6.08h3.33v1.24h-3.33Z"/>
        <path class="cls-2" d="M253.14,26.01c0,3.4,2.48,5.62,5.29,5.62,2.16,0,3.79-1.27,4.64-3.04l1.11.65c-.78,1.5-2.55,3.63-5.85,3.63-4.15,0-6.57-3.07-6.57-6.96,0-4.64,3.2-7.02,6.47-7.02,3.59,0,6.3,2.87,6.3,7.12h-11.4ZM263.17,24.77c-.33-2.64-2.29-4.64-4.93-4.64s-4.64,2.06-5,4.64h9.93Z"/>
      </g>
    </g>
  </g>
</svg>